# Blender v2.79 (sub 0) OBJ File: ''
# www.blender.org
mtllib CajaGrande.mtl
o cajaGrande_Untitled
v -2.831304 0.027393 2.161684
v 2.845001 0.027392 2.134388
v -2.852313 0.027392 -2.207179
v 2.823992 0.027392 -2.234474
v -2.831304 3.027434 2.161684
v 2.845001 3.027434 2.134388
v -2.852313 3.027434 -2.207179
v 2.823992 3.027434 -2.234474
v -2.434484 3.247571 1.815881
v 2.444873 3.247571 1.792418
v 2.427172 3.247571 -1.888672
v -2.452185 3.247571 -1.865208
v -2.432116 0.307275 2.308341
v 2.447241 0.307275 2.284878
v 2.447241 2.747552 2.284878
v -2.432116 2.747552 2.308341
v 2.424702 0.307275 -2.402239
v -2.454654 0.307275 -2.378775
v -2.454654 2.747552 -2.378775
v 2.424702 2.747551 -2.402239
vt 0.036080 0.352298
vt 0.402636 0.344396
vt 0.405954 0.498297
vt 0.039399 0.506199
vt 0.618054 0.031005
vt 0.969044 0.030978
vt 0.969051 0.280841
vt 0.618061 0.280842
vt 0.002000 0.540722
vt 0.179738 0.540722
vt 0.179738 0.847447
vt 0.002000 0.847447
vt 0.031029 0.031032
vt 0.381965 0.031040
vt 0.381969 0.280815
vt 0.031034 0.280840
vt 0.410994 0.002088
vt 0.589108 0.002118
vt 0.589113 0.309732
vt 0.410997 0.309765
vt 0.002000 0.332649
vt 0.435838 0.323297
vt 0.440034 0.517946
vt 0.006197 0.527298
vt 0.997991 0.002026
vt 0.998000 0.309791
vt 0.002000 0.002000
vt 0.002005 0.309873
vn 0.0000 1.0000 -0.0000
vn 0.0048 0.0000 1.0000
vn 1.0000 0.0000 -0.0048
vn -0.0048 0.0000 -1.0000
vn -1.0000 0.0000 0.0048
vn 0.0026 0.8422 0.5391
vn 0.4836 0.8753 -0.0023
vn -0.0026 0.8422 -0.5391
vn -0.4836 0.8753 0.0023
vn 0.0042 -0.4689 0.8833
vn 0.3539 0.0000 0.9353
vn 0.0042 0.4689 0.8833
vn -0.3449 0.0000 0.9387
vn -0.0041 -0.5184 -0.8551
vn -0.3962 0.0000 -0.9182
vn -0.0041 0.5184 -0.8551
vn 0.3874 0.0000 -0.9219
usemtl None
s 1
f 9/1/1 10/2/1 11/3/1 12/4/1
f 13/5/2 14/6/2 15/7/2 16/8/2
f 2/9/3 4/10/3 8/11/3 6/12/3
f 17/13/4 18/14/4 19/15/4 20/16/4
f 3/17/5 1/18/5 5/19/5 7/20/5
f 5/21/6 6/22/6 10/2/6 9/1/6
f 6/22/7 8/23/7 11/3/7 10/2/7
f 8/23/8 7/24/8 12/4/8 11/3/8
f 7/24/9 5/21/9 9/1/9 12/4/9
f 1/18/10 2/25/10 14/6/10 13/5/10
f 2/25/11 6/26/11 15/7/11 14/6/11
f 6/26/12 5/19/12 16/8/12 15/7/12
f 5/19/13 1/18/13 13/5/13 16/8/13
f 4/27/14 3/17/14 18/14/14 17/13/14
f 3/17/15 7/20/15 19/15/15 18/14/15
f 7/20/16 8/28/16 20/16/16 19/15/16
f 8/28/17 4/27/17 17/13/17 20/16/17
